<svg xmlns="http://www.w3.org/2000/svg" width="22" height="22" viewBox="0 0 22 22">
  <defs>
    <style>
      .cls-1 {
        fill: #5edc8f;

      }

      .cls-2 {
        fill: #fff;
        stroke: #fff;
      }
    </style>
  </defs>
  <g id="组_1163" data-name="组 1163" transform="translate(-451 -370)">
    <rect id="矩形_9" data-name="矩形 9" class="cls-1" width="22" height="22" rx="11" transform="translate(451 370)"/>
    <path id="路径_1049" data-name="路径 1049" class="cls-2" d="M137.483,126.266l-2.314-2.328a.41.41,0,0,0-.582,0l-6.3,6.331a.381.381,0,0,0-.122.217l-.559,2.875a.388.388,0,0,0,.1.341.379.379,0,0,0,.273.114.336.336,0,0,0,.065-.006l2.886-.5a.384.384,0,0,0,.234-.111l6.311-6.348a.413.413,0,0,0,.121-.293A.408.408,0,0,0,137.483,126.266Zm-6.767,6.3-2.253.391.436-2.209L132.624,127l1.812,1.824Zm4.262-4.291-1.813-1.824,1.711-1.717,1.813,1.824Z" transform="translate(329.898 251.683)"/>
  </g>
</svg>
