<svg xmlns="http://www.w3.org/2000/svg" width="16" height="16" viewBox="0 0 16 16">
  <defs>
    <style>
      .cls-1 {
        opacity: 0;
      }

      .cls-2 {
      }
    </style>
  </defs>
  <g id="ic_consultation_management" transform="translate(-72 -553)">
    <rect id="矩形_1" data-name="矩形 1" class="cls-1" width="16" height="16" transform="translate(72 553)"/>
    <path id="ic_consultation_management-2" data-name="ic_consultation_management" class="cls-2" d="M76.1,564.779a5.163,5.163,0,0,1-.063-.779,4.557,4.557,0,0,1,2.588-4.235l1.44,1.634,1.444-1.641A4.554,4.554,0,0,1,84.111,564a5.282,5.282,0,0,1-.063.779,5.438,5.438,0,0,1-7.951,0Zm-4.039-2.2a4.739,4.739,0,0,1-.059-.72,4.217,4.217,0,0,1,2.394-3.919l1.332,1.513,1.336-1.518h0a2.961,2.961,0,0,0,.82,1.328A5.356,5.356,0,0,0,75.237,564c0,.05.005.1.006.154A4.641,4.641,0,0,1,72.058,562.58ZM84.908,564a5.346,5.346,0,0,0-2.681-4.752,2.984,2.984,0,0,0,.771-1.22l1.256,1.427,1.337-1.518A4.214,4.214,0,0,1,88,561.86a4.858,4.858,0,0,1-.058.72,4.619,4.619,0,0,1-3.039,1.56C84.9,564.094,84.908,564.046,84.908,564Zm-7.164-6.872a2.3,2.3,0,1,1,2.3,2.226A2.264,2.264,0,0,1,77.744,557.128Zm5.39.128c0-.042.007-.084.007-.127a2.948,2.948,0,0,0-.95-2.157,2.114,2.114,0,1,1,2.048,2.591A2.159,2.159,0,0,1,83.134,557.256ZM73.581,555.5a2.134,2.134,0,0,1,4.208-.424,2.934,2.934,0,0,0-.842,2.049c0,.014,0,.027,0,.041a2.153,2.153,0,0,1-1.239.393A2.1,2.1,0,0,1,73.581,555.5Z" transform="translate(0.001 1.557)"/>
  </g>
</svg>
