<svg xmlns="http://www.w3.org/2000/svg" width="16" height="16" viewBox="0 0 16 16">
  <defs>
    <style>
      .cls-1 {
        opacity: 0;
      }

      .cls-2 {
      }
    </style>
  </defs>
  <g id="ic_monitoring" transform="translate(-72 -189)">
    <rect id="矩形_1" data-name="矩形 1" class="cls-1" width="16" height="16" transform="translate(72 189)"/>
    <path id="ic_monitoring-2" data-name="ic_monitoring" class="cls-2" d="M75.24,190h5.866L86,194.475v9.275a1.256,1.256,0,0,1-.363.884,1.238,1.238,0,0,1-.878.366H75.24a1.237,1.237,0,0,1-.878-.366A1.254,1.254,0,0,1,74,203.75v-12.5A1.245,1.245,0,0,1,75.24,190Zm1.259,9.964h7v-1h-7Zm0,2.5h7v-1h-7Zm0-5h7v-1h-7Zm4.54-6.334v3.1h3.256l-3.255-3.1Zm0,0"/>
  </g>
</svg>
