<svg xmlns="http://www.w3.org/2000/svg" width="32" height="32" viewBox="0 0 32 32">
  <defs>
    <style>
      .cls-1, .cls-2 {
        fill: none;
      }

      .cls-2 {
        stroke: #787d88;
        stroke-miterlimit: 10;
        stroke-width: 2px;
      }

      .cls-3 {
        fill: #787d88;
      }
    </style>
  </defs>
  <g id="icon_zx" transform="translate(-540.5 -487.5)">
    <rect id="矩形_775" data-name="矩形 775" class="cls-1" width="32" height="32" transform="translate(540.5 487.5)"/>
    <path id="路径_1121" data-name="路径 1121" class="cls-2" d="M545.856,492.192a1.552,1.552,0,0,0-1.393,1.4v15.563a1.438,1.438,0,0,0,1.394,1.4h7.5a.62.62,0,0,1,.519.256l2.416,2.446a.883.883,0,0,0,1.264,0l2.339-2.41a.594.594,0,0,1,.518-.265H567.8a1.55,1.55,0,0,0,1.548-1.322V493.59a1.554,1.554,0,0,0-1.4-1.4h-22.1Z" transform="translate(0 1)"/>
    <g id="组_326" data-name="组 326" transform="translate(0 1)">
      <path id="路径_1122" data-name="路径 1122" class="cls-3" d="M548.907,501.1a1.778,1.778,0,0,1,3.556,0h0a1.778,1.778,0,0,1-3.556,0Z"/>
      <path id="路径_1123" data-name="路径 1123" class="cls-3" d="M555.129,501.1a1.778,1.778,0,0,1,3.556,0h0a1.778,1.778,0,1,1-3.556,0Z"/>
      <path id="路径_1124" data-name="路径 1124" class="cls-3" d="M561.352,501.1a1.777,1.777,0,0,1,3.555,0h0a1.777,1.777,0,1,1-3.555,0Z"/>
    </g>
  </g>
</svg>
