<svg xmlns="http://www.w3.org/2000/svg" width="16" height="16" viewBox="0 0 16 16">
  <defs>
    <style>
      .cls-1 {
        opacity: 0;
      }

      .cls-2 {
      }
    </style>
  </defs>
  <g id="ic_system_management" transform="translate(-1027 -61)">
    <rect id="矩形_1277_拷贝_2" data-name="矩形 1277 拷贝 2" class="cls-1" width="16" height="16" transform="translate(1027 61)"/>
    <path id="ic_system_management-2" data-name="ic_system_management" class="cls-2" d="M1042.924,72a2.623,2.623,0,0,1-.161.556,2.413,2.413,0,0,1-.271.507.981.981,0,0,1-.354.322.771.771,0,0,1-.338.1.936.936,0,0,1-.321-.065,3.4,3.4,0,0,0-.4-.089,1.932,1.932,0,0,0-.49-.016,2.381,2.381,0,0,0-.5.1.967.967,0,0,0-.425.274,1.587,1.587,0,0,0-.45.918,1.806,1.806,0,0,0,.144.983.612.612,0,0,1-.048.644,1.208,1.208,0,0,1-.3.266,3.48,3.48,0,0,1-.459.25,2.844,2.844,0,0,1-.523.178,2.2,2.2,0,0,1-.482.063.411.411,0,0,1-.273-.113.65.65,0,0,1-.178-.241,2.17,2.17,0,0,0-.618-.862,1.475,1.475,0,0,0-.989-.363,1.518,1.518,0,0,0-.988.363,1.958,1.958,0,0,0-.619.846.549.549,0,0,1-.241.282.715.715,0,0,1-.352.088,1.828,1.828,0,0,1-.507-.081,4.553,4.553,0,0,1-.562-.2,2.669,2.669,0,0,1-.506-.282,1.431,1.431,0,0,1-.337-.322.5.5,0,0,1-.09-.265.977.977,0,0,1,.121-.428,1.61,1.61,0,0,0,.136-.846,1.455,1.455,0,0,0-.41-.878,1.037,1.037,0,0,0-.545-.313,2.2,2.2,0,0,0-.611-.057,2.66,2.66,0,0,0-.69.129.653.653,0,0,1-.45-.033.7.7,0,0,1-.33-.3,3.453,3.453,0,0,1-.273-.516,3.147,3.147,0,0,1-.185-.58,1.34,1.34,0,0,1-.032-.492.5.5,0,0,1,.321-.451,2.256,2.256,0,0,0,.867-.636,1.468,1.468,0,0,0,.386-.991,1.4,1.4,0,0,0-.386-.982,2.39,2.39,0,0,0-.867-.613.424.424,0,0,1-.238-.231.815.815,0,0,1-.1-.378,1.964,1.964,0,0,1,.064-.468,3.144,3.144,0,0,1,.169-.5,2.814,2.814,0,0,1,.241-.444,1,1,0,0,1,.3-.3.375.375,0,0,1,.251-.064,1.368,1.368,0,0,1,.264.064,1.929,1.929,0,0,0,1,.12,1.633,1.633,0,0,0,.924-.458,1.173,1.173,0,0,0,.281-.475,2.591,2.591,0,0,0,.113-.556,2.552,2.552,0,0,0,0-.5q-.016-.161-.041-.322a1.746,1.746,0,0,1-.056-.225.357.357,0,0,1,.023-.227.924.924,0,0,1,.346-.395,2.739,2.739,0,0,1,.538-.283,3.806,3.806,0,0,1,.562-.169,2.275,2.275,0,0,1,.435-.056.42.42,0,0,1,.33.137.844.844,0,0,1,.167.283,1.934,1.934,0,0,0,.578.766,1.448,1.448,0,0,0,.948.331,1.654,1.654,0,0,0,1-.315,1.681,1.681,0,0,0,.61-.8,1.043,1.043,0,0,1,.2-.265.4.4,0,0,1,.282-.138,2.05,2.05,0,0,1,.49.065,2.968,2.968,0,0,1,.521.177,1.994,1.994,0,0,1,.475.29,1.564,1.564,0,0,1,.345.386.37.37,0,0,1,.048.282.978.978,0,0,1-.065.218,1.712,1.712,0,0,0-.129.982,1.615,1.615,0,0,0,.465.9,1.448,1.448,0,0,0,.949.428,2.086,2.086,0,0,0,1.045-.186.49.49,0,0,1,.313-.064.5.5,0,0,1,.313.144,1.915,1.915,0,0,1,.425.686,3.89,3.89,0,0,1,.249.926.568.568,0,0,1-.087.427.607.607,0,0,1-.251.2,1.886,1.886,0,0,0-.85.62,1.572,1.572,0,0,0-.353,1.006,1.6,1.6,0,0,0,.3.959,1.644,1.644,0,0,0,.779.588,1.566,1.566,0,0,1,.193.128.722.722,0,0,1,.241.371,1.33,1.33,0,0,1-.017.466Zm-6.431-.133a2.546,2.546,0,0,0,.826-.56,2.693,2.693,0,0,0,.553-.828,2.625,2.625,0,0,0,0-2.013,2.574,2.574,0,0,0-1.379-1.376,2.548,2.548,0,0,0-1.008-.2,2.507,2.507,0,0,0-1,.2,2.6,2.6,0,0,0-1.371,1.376,2.606,2.606,0,0,0,0,2.013,2.706,2.706,0,0,0,.553.828,2.559,2.559,0,0,0,.818.56,2.5,2.5,0,0,0,1,.2,2.528,2.528,0,0,0,1.007-.2Zm0,0"/>
  </g>
</svg>
