<svg xmlns="http://www.w3.org/2000/svg" xmlns:xlink="http://www.w3.org/1999/xlink" width="16" height="16" viewBox="0 0 16 16">
  <defs>
    <style>
      .cls-1 {
      }

      .cls-2 {
      }

      .cls-3 {
        opacity: 0;
      }
    </style>
    <clipPath id="clip-path">
      <rect id="SVGID" class="cls-1" width="14" height="14"/>
    </clipPath>
  </defs>
  <g id="组_131" data-name="组 131" transform="translate(-25 -3)">
    <g id="组_120" data-name="组 120" transform="translate(26 4)">
      <g id="组_119" data-name="组 119" class="cls-2" transform="translate(0 0)">
        <path id="路径_22" data-name="路径 22" class="cls-1" d="M553.931,136.063l.611.436,2.341,1.669,2.953-2.1-2.953-2.181Zm3.17,2.867a.367.367,0,0,1-.217.069.381.381,0,0,1-.217-.069l-2.337-1.666-.4.3.611.436,2.341,1.669,2.953-2.106-.4-.294Zm0,1.494a.366.366,0,0,1-.217.069.381.381,0,0,1-.217-.069l-2.337-1.666-.4.3,2.953,2.1,2.953-2.106-.4-.3Zm-.227-9.9a6.987,6.987,0,1,0,6.995,6.987,6.992,6.992,0,0,0-6.995-6.987Zm3.818,6.743a.372.372,0,0,1,0,.6l-.611.436.616.456a.372.372,0,0,1,0,.6l-3.587,2.558a.366.366,0,0,1-.217.069.382.382,0,0,1-.217-.069l-3.586-2.558a.372.372,0,0,1,0-.6l.616-.456-.611-.436a.372.372,0,0,1,0-.6l.616-.456-.611-.436a.372.372,0,0,1,0-.6l3.587-2.65a.376.376,0,0,1,.444,0l3.587,2.65a.372.372,0,0,1,0,.6l-.611.436Zm0,0" transform="translate(-549.882 -130.511)"/>
      </g>
    </g>
    <rect id="矩形_1" data-name="矩形 1" class="cls-3" width="16" height="16" transform="translate(25 3)"/>
  </g>
</svg>
