<svg
 xmlns="http://www.w3.org/2000/svg"
 xmlns:xlink="http://www.w3.org/1999/xlink"
 width="14px" height="16px">
<path fill-rule="evenodd"
 d="M12.000,16.000 L2.000,16.000 C0.895,16.000 -0.000,15.105 -0.000,14.000 L-0.000,2.000 C-0.000,0.895 0.895,-0.000 2.000,-0.000 L12.000,-0.000 C13.105,-0.000 14.000,0.895 14.000,2.000 L14.000,14.000 C14.000,15.105 13.105,16.000 12.000,16.000 ZM7.000,8.000 C8.105,8.000 9.000,7.105 9.000,6.000 C9.000,4.895 8.105,4.000 7.000,4.000 C5.895,4.000 5.000,4.895 5.000,6.000 C5.000,7.105 5.895,8.000 7.000,8.000 C4.791,8.000 3.000,9.233 3.000,11.000 C3.000,11.765 4.791,12.000 7.000,12.000 C9.209,12.000 11.000,11.797 11.000,11.000 C11.000,9.233 9.209,8.000 7.000,8.000 Z"/>
</svg>
