<svg xmlns="http://www.w3.org/2000/svg" width="32" height="32" viewBox="0 0 32 32">
  <defs>
    <style>
      .cls-1, .cls-2, .cls-3 {
        fill: none;
      }

      .cls-2 {
        stroke: #4f5e7b;
        stroke-width: 2px;
      }

      .cls-2, .cls-3 {
        stroke-miterlimit: 10;
      }

      .cls-3 {
        stroke-linecap: round;
      }

      .cls-4, .cls-5 {
        stroke: none;
      }

      .cls-5 {
        fill: #4f5e7b;
      }
    </style>
  </defs>
  <g id="icon_jjrw" transform="translate(-448.5 -444.5)">
    <rect id="矩形_776" data-name="矩形 776" class="cls-1" width="32" height="32" transform="translate(448.5 444.5)"/>
    <circle id="椭圆_25" data-name="椭圆 25" class="cls-2" cx="13" cy="13" r="13" transform="translate(451.5 447.5)"/>
    <g id="路径_1125" data-name="路径 1125" class="cls-3">
      <path class="cls-4" d="M470.232,454.5a.918.918,0,0,0-.814-.5h-6.46a.921.921,0,0,0-.836.546l-2.538,5.623a.95.95,0,0,0,.062.9.916.916,0,0,0,.777.432h1.588l-1.559,6.335a.943.943,0,0,0,.692,1.14.887.887,0,0,0,.2.027.917.917,0,0,0,.652-.276l9.228-9.375a.95.95,0,0,0,.2-1.022.929.929,0,0,0-.858-.579h-1.938l1.542-2.282a.931.931,0,0,0,.058-.966Z"/>
      <path class="cls-5" d="M 463.6600036621094 456 L 462.0811767578125 459.4979858398438 L 464.5628356933594 459.4979858398438 L 463.9530334472656 461.9759216308594 L 463.3250427246094 464.52783203125 L 468.0299377441406 459.7479858398438 L 464.8687744140625 459.7479858398438 L 466.9768676757813 456.6282348632813 L 467.4013671875 456 L 463.6600036621094 456 M 462.9580078125 454 L 469.4179992675781 454 C 469.7619934082031 454.0020141601563 470.0759887695313 454.1950073242188 470.2319946289063 454.5020141601563 L 470.2340087890625 454.5 C 470.3970031738281 454.8070068359375 470.3739929199219 455.1799926757813 470.1759948730469 455.4660034179688 L 468.6340026855469 457.7479858398438 L 470.5719909667969 457.7479858398438 C 470.9490051269531 457.7489929199219 471.2879943847656 457.9779968261719 471.4299926757813 458.3269958496094 C 471.5719909667969 458.677001953125 471.4939880371094 459.0790100097656 471.22900390625 459.3489990234375 L 462.0010070800781 468.7239990234375 C 461.8290100097656 468.8999938964844 461.593994140625 468.9989929199219 461.3489990234375 469 C 461.2799987792969 468.9989929199219 461.2109985351563 468.989990234375 461.1440124511719 468.9729919433594 C 460.6380004882813 468.8500061035156 460.3290100097656 468.3389892578125 460.4519958496094 467.8330078125 L 462.010986328125 461.4979858398438 L 460.4230041503906 461.4979858398438 C 460.1090087890625 461.4979858398438 459.8139953613281 461.3359985351563 459.64599609375 461.0660095214844 C 459.4760131835938 460.7959899902344 459.4530029296875 460.4590148925781 459.5840148925781 460.1690063476563 L 462.1220092773438 454.5459899902344 C 462.2690124511719 454.2160034179688 462.5960083007813 454.0020141601563 462.9580078125 454 Z"/>
    </g>
  </g>
</svg>
