<svg xmlns="http://www.w3.org/2000/svg" xmlns:xlink="http://www.w3.org/1999/xlink" width="16" height="16" viewBox="0 0 16 16">
  <defs>
    <style>
      .cls-1 {
      }

      .cls-2 {
        opacity: 0;
      }

      .cls-3 {
      }
    </style>
    <clipPath id="clip-path">
      <rect id="SVGID" class="cls-1" width="16" height="16"/>
    </clipPath>
  </defs>
  <g id="组_125" data-name="组 125" transform="translate(-32 -148)">
    <rect id="矩形_1" data-name="矩形 1" class="cls-2" width="16" height="16" transform="translate(32 148)"/>
    <g id="组_104" data-name="组 104" transform="translate(-563 -28)">
      <g id="组_103" data-name="组 103" transform="translate(595 176)">
        <g id="组_102" data-name="组 102" class="cls-3" transform="translate(0 0)">
          <path id="路径_19" data-name="路径 19" class="cls-1" d="M601.649,182.452v-2.4h2.686v2.4l1.506-1.5a1.34,1.34,0,0,0,0-1.9l-1.9-1.9a1.344,1.344,0,0,0-1.9,0l-1.9,1.9a1.34,1.34,0,0,0,0,1.9Zm-3.358,3.631V183.4H600.7l-1.506-1.5a1.344,1.344,0,0,0-1.9,0l-1.9,1.9a1.34,1.34,0,0,0,0,1.9l1.9,1.9a1.344,1.344,0,0,0,1.9,0l1.506-1.5h-2.408Zm6.044.949v2.405h-2.686v-2.4l-1.506,1.5a1.34,1.34,0,0,0,0,1.9l1.9,1.9a1.344,1.344,0,0,0,1.9,0l1.9-1.9a1.34,1.34,0,0,0,0-1.9Zm6.255-3.238-1.9-1.9a1.344,1.344,0,0,0-1.9,0l-1.506,1.5h2.408v2.683h-2.408l1.506,1.5a1.344,1.344,0,0,0,1.9,0l1.9-1.9a1.34,1.34,0,0,0,0-1.9Zm0,0" transform="translate(-595.001 -176.744)"/>
        </g>
      </g>
    </g>
  </g>
</svg>
