<svg 
 xmlns="http://www.w3.org/2000/svg"
 xmlns:xlink="http://www.w3.org/1999/xlink"
 width="14px" height="14px">
<path fill-rule="evenodd"  fill="rgb(255, 113, 113)"
 d="M12.000,14.000 L2.000,14.000 C0.895,14.000 -0.000,13.105 -0.000,12.000 L-0.000,11.302 L3.586,7.673 L4.984,9.088 L6.382,10.502 L10.915,5.916 L11.992,6.997 L11.992,2.997 L8.007,2.997 L9.512,4.507 L6.382,7.673 L4.984,6.259 L3.586,4.845 L-0.000,8.474 L-0.000,2.000 C-0.000,0.895 0.895,-0.000 2.000,-0.000 L12.000,-0.000 C13.105,-0.000 14.000,0.895 14.000,2.000 L14.000,12.000 C14.000,13.105 13.105,14.000 12.000,14.000 Z"/>
</svg>
