<svg xmlns="http://www.w3.org/2000/svg" width="13.719" height="15.136" viewBox="0 0 13.719 15.136">
  <g id="修改资料" transform="translate(-127.347 -123.817)">
    <path id="路径_1049" data-name="路径 1049" class="cls-1" d="M141.153,127.156l-3.174-3.174a.564.564,0,0,0-.8,0l-8.635,8.631a.519.519,0,0,0-.167.3l-.767,3.919a.526.526,0,0,0,.142.465.521.521,0,0,0,.374.156.465.465,0,0,0,.09-.008l3.958-.683a.528.528,0,0,0,.321-.152l8.655-8.655a.561.561,0,0,0,.166-.4A.555.555,0,0,0,141.153,127.156Zm-9.28,8.59-3.09.534.6-3.012,6.079-6.079,2.484,2.486Zm6.815-6.815-2.486-2.486,1.377-1.377,2.486,2.486Z" transform="translate(-0.25 0)"/>
    <path id="路径_1050" data-name="路径 1050" class="cls-1" d="M140.095,865.112H127.873a.526.526,0,1,1,0-1.051H140.1a.526.526,0,1,1,0,1.051Z" transform="translate(0 -726.158)"/>
  </g>
</svg>
