<svg xmlns="http://www.w3.org/2000/svg" width="24" height="24" viewBox="0 0 24 24">
  <defs>
    <style>
      .cls-1 {
        fill: none;
      }

      .cls-2 {
        
      }
    </style>
  </defs>
  <g id="icon_mm" transform="translate(0 -0.179)">
    <rect id="矩形_16" data-name="矩形 16" class="cls-1" width="24" height="24" transform="translate(0 0.179)"/>
    <g id="组_10" data-name="组 10" transform="translate(2.29 2.247)">
      <path id="路径_34" data-name="路径 34" class="cls-2" d="M27.522,18.978a4.853,4.853,0,0,1,4.468,6.8l-.333.756.586.583,7.664,7.635-.285,1.334-1.283.261-1.4-1.391a1.7,1.7,0,0,0-.965-.517,1.417,1.417,0,0,0-.183-.012,1.86,1.86,0,0,0-.616.118l-.081.029-.03.011-.046.016a.918.918,0,0,1-.2.061L34.8,34.65a.185.185,0,0,1-.06-.144,1.5,1.5,0,0,1,.056-.423,1.587,1.587,0,0,0-.308-1.567,1.318,1.318,0,0,0-.953-.384,3.183,3.183,0,0,0-.611.079,2.142,2.142,0,0,1-.38.057h-.048a.193.193,0,0,1-.142-.053c.009-.023.024-.06.049-.118l.038-.085c.017-.039.03-.069.042-.1a1.525,1.525,0,0,0,.122-.836,1.844,1.844,0,0,0-.571-1l-1.451-1.445-.556-.553-.731.284a4.9,4.9,0,0,1-5.223-1.093,4.854,4.854,0,0,1,3.45-8.284m0-1.205a6.059,6.059,0,1,0,2.209,11.705l1.451,1.445a.719.719,0,0,1,.231.337.383.383,0,0,1-.046.194l-.029.069L31.3,31.6a1.479,1.479,0,0,0-.164.61,1.126,1.126,0,0,0,.357.845,1.394,1.394,0,0,0,.934.411c.04,0,.078,0,.115,0a3.056,3.056,0,0,0,.612-.08,2.342,2.342,0,0,1,.378-.056.128.128,0,0,1,.1.033c.046.045.049.112-.023.479a2.6,2.6,0,0,0-.077.724,1.384,1.384,0,0,0,.412.931,1.193,1.193,0,0,0,.848.368h.012a1.692,1.692,0,0,0,.619-.132l.075-.027.067-.024a.742.742,0,0,1,.223-.052l.027,0a.521.521,0,0,1,.271.176l1.481,1.475a.985.985,0,0,0,.892.267L40,37.243a.981.981,0,0,0,.764-.756l.342-1.6a.977.977,0,0,0-.266-.9l-7.752-7.723h0a6.065,6.065,0,0,0-5.57-8.494Z" transform="translate(-21.44 -17.773)"/>
      <path id="路径_35" data-name="路径 35" class="cls-2" d="M56.908,50.9a.964.964,0,1,1-.964.964.965.965,0,0,1,.964-.964m0-1.205a2.169,2.169,0,1,0,2.169,2.169A2.169,2.169,0,0,0,56.908,49.7Z" transform="translate(-50.726 -45.849)"/>
    </g>
  </g>
</svg>
