<svg xmlns="http://www.w3.org/2000/svg" width="32" height="32" viewBox="0 0 32 32">
  <defs>
    <style>
      .cls-1, .cls-2 {
        fill: none;
      }

      .cls-1 {
        stroke: currentColor;
        stroke-linecap: round;
        stroke-linejoin: round;
        stroke-width: 2px;
      }

      .cls-3 {
        fill: currentColor;
      }
    </style>
  </defs>
  <g id="icon_kjhf" transform="translate(-1157.5 -595.5)">
    <path id="路径_1133" data-name="路径 1133" class="cls-1" d="M1174.063,599a12.5,12.5,0,0,1,0,25h-11.429l1.607-3.214.536-1.072-.715-.893a11.712,11.712,0,0,1-2.5-7.321,12.423,12.423,0,0,1,12.5-12.5"/>
    <rect id="矩形_799" data-name="矩形 799" class="cls-2" width="32" height="32" transform="translate(1157.5 595.5)"/>
    <path id="路径_1134" data-name="路径 1134" class="cls-3" d="M1174,606.017a.261.261,0,0,1,.2.321q0,.184-.495,3.631c0,.092,0,.092.1.092h3.6a.352.352,0,0,1,.4.368.233.233,0,0,1-.1.184c-1.182,1.654-4.144,5.791-4.44,6.249a.485.485,0,0,1-.246.185.3.3,0,0,1-.345-.368c.148-.827.541-3.217.641-3.585,0-.118,0-.135-.093-.137h-3.755a.325.325,0,0,1-.255-.384l.007-.03c0-.046.05-.092.1-.138,1.43-2.068,2.861-4.089,4.242-6.159,0-.045.05-.045.05-.091a.343.343,0,0,1,.4-.138Z"/>
  </g>
</svg>
