<svg xmlns="http://www.w3.org/2000/svg" width="16" height="16" viewBox="0 0 16 16">
  <defs>
    <style>
      .cls-1 {
        opacity: 0;
      }

      .cls-2 {
      }
    </style>
  </defs>
  <g id="ic_quality_control_management" transform="translate(-72 -389)">
    <rect id="矩形_1" data-name="矩形 1" class="cls-1" width="16" height="16" transform="translate(72 389)"/>
    <path id="ic_quality_control_management-2" data-name="ic_quality_control_management" class="cls-2" d="M80.46,404.981a1.149,1.149,0,0,1-.175-.013h-.007a7.166,7.166,0,0,1-3.27-1.713c-2-1.8-3.017-4.529-3.017-8.119V392.79a.881.881,0,0,1,.31-.677,1.082,1.082,0,0,1,.687-.249h.071l.039,0c.064,0,.2.012.392.012h.025a9.228,9.228,0,0,0,1.986-.215,6.5,6.5,0,0,0,2.42-1.508,1.033,1.033,0,0,1,.551-.158,1.072,1.072,0,0,1,.555.158,8.513,8.513,0,0,0,2.473,1.491,9.14,9.14,0,0,0,1.97.214h.025c.2,0,.34-.009.394-.013h.093a1.072,1.072,0,0,1,.675.249.94.94,0,0,1,.326.695v2.345c0,8.794-6.284,9.823-6.348,9.833A1.149,1.149,0,0,1,80.46,404.981Zm-3.891-8.549a.5.5,0,0,0-.336.876l3,2.72a.5.5,0,0,0,.671,0l4.83-4.33a.5.5,0,0,0,.04-.71.5.5,0,0,0-.707-.04l-4.495,4.029L76.9,396.562A.5.5,0,0,0,76.569,396.432Z" transform="translate(0.009 0.003)"/>
  </g>
</svg>
