<svg xmlns="http://www.w3.org/2000/svg" width="16" height="16" viewBox="0 0 16 16">
  <defs>
    <style>
      .cls-1 {
        opacity: 0;
      }

      .cls-2 {
      }
    </style>
  </defs>
  <g id="ic_operation_log" transform="translate(-903 -61)">
    <rect id="矩形_1277_拷贝_4" data-name="矩形 1277 拷贝 4" class="cls-1" width="16" height="16" transform="translate(903 61)"/>
    <path id="ic_operation_log-2" data-name="ic_operation_log" class="cls-2" d="M917.454,69.474a1.557,1.557,0,0,0-1.517.545l-3.914,4.524a1.02,1.02,0,0,0-.212.409l-.347,1.319a1.336,1.336,0,0,0-.03.141h-5.311a1.06,1.06,0,0,1-.8-.384,1.421,1.421,0,0,1-.332-.926V63.311A1.231,1.231,0,0,1,906.122,62h10.2a1.06,1.06,0,0,1,.8.384,1.419,1.419,0,0,1,.332.927Zm0,4.355V75.1a1.418,1.418,0,0,1-.332.926,1.06,1.06,0,0,1-.8.384h-1.1Zm-10.2-7.734h6.885a.5.5,0,0,0,0-.982h-6.885a.5.5,0,0,0,0,.982Zm0,2.62h3.138a.5.5,0,0,0,0-.982h-3.138a.5.5,0,0,0,0,.982Zm6.573,7.916-1.214.34a.259.259,0,0,1-.272-.094.364.364,0,0,1-.066-.321l.348-1.319,3.914-4.525a.772.772,0,0,1,1.205,0,1.095,1.095,0,0,1,0,1.392l-3.916,4.526Zm0,0"/>
  </g>
</svg>
