<svg xmlns="http://www.w3.org/2000/svg" width="16" height="16" viewBox="0 0 16 16">
  <defs>
    <style>
      .cls-1 {
        opacity: 0;
      }

      .cls-2 {
      }
    </style>
  </defs>
  <g id="ic_homepage" transform="translate(-311 -61)">
    <rect id="矩形_1277" data-name="矩形 1277" class="cls-1" width="16" height="16" transform="translate(311 61)"/>
    <path id="ic_homepage-2" data-name="ic_homepage" class="cls-2" d="M312.329,67.726l6-5.416a1,1,0,0,1,1.34,0l6,5.416a1,1,0,0,1,.33.739V74.98a1,1,0,0,1-1,1H313a1,1,0,0,1-1-1V68.466a1,1,0,0,1,.331-.739ZM319,69.02a2,2,0,0,0-2,2V73.99h4V71.015a2,2,0,0,0-2-2Zm0,0"/>
  </g>
</svg>
