<svg xmlns="http://www.w3.org/2000/svg" width="32" height="32" viewBox="0 0 32 32">
  <defs>
    <style>
      .cls-1, .cls-2 {
        fill: none;
      }

      .cls-2 {
        stroke: currentColor;
        stroke-linecap: round;
        stroke-linejoin: round;
        stroke-width: 2px;
      }
    </style>
  </defs>
  <g id="icon_pg" transform="translate(-1205.5 -595.5)">
    <rect id="矩形_800" data-name="矩形 800" class="cls-1" width="32" height="32" transform="translate(1205.5 595.5)"/>
    <path id="路径_1135" data-name="路径 1135" class="cls-2" d="M1226.5,600h6v22a2,2,0,0,1-2,2h-18a2,2,0,0,1-2-2V600h6"/>
    <path id="矩形_801" data-name="矩形 801" class="cls-2" d="M0,0H10a0,0,0,0,1,0,0V2A2,2,0,0,1,8,4H2A2,2,0,0,1,0,2V0A0,0,0,0,1,0,0Z" transform="translate(1216.5 599)"/>
    <path id="路径_1136" data-name="路径 1136" class="cls-2" d="M1226.555,609.937l-6.224,6.224-3.246-3.246"/>
  </g>
</svg>
