<svg xmlns="http://www.w3.org/2000/svg" width="16" height="16" viewBox="0 0 16 16">
  <defs>
    <style>
      .cls-1 {
        fill: #fff;
      }

      .cls-2, .cls-5 {
          fill: currentColor;
      }

      .cls-3 {
        fill: none;
      }

      .cls-4, .cls-5 {
        stroke: none;
      }
    </style>
  </defs>
  <g id="组_71" data-name="组 71" transform="translate(-31 -6)">
    <g id="组_67" data-name="组 67" transform="translate(0 1)">
      <g id="减去_7" data-name="减去 7" class="cls-1" transform="translate(34 7)">
        <path class="cls-4" d="M10,2H9V1H1V2H0V1A1,1,0,0,1,1,0H9a1,1,0,0,1,1,1V2Z"/>
        <path class="cls-5" d="M 9.999899864196777 2.000800132751465 L 9.998899459838867 2.000800132751465 L 9 1.999800086021423 L 9 0.9999000430107117 L 0.9998999238014221 0.9999000430107117 L 0.9998999238014221 1.999800086021423 L 0.0009999320609495044 1.999800086021423 L -6.790160966829717e-08 0.9999000430107117 C -6.790160966829717e-08 0.4485500752925873 0.4485499262809753 6.637573335410707e-08 0.9998999238014221 6.637573335410707e-08 L 9 6.637573335410707e-08 C 9.551349639892578 6.637573335410707e-08 9.999899864196777 0.4485500752925873 9.999899864196777 0.9999000430107117 L 9.999899864196777 1.999800086021423 L 9.999899864196777 2.000800132751465 Z"/>
      </g>
      <g id="减去_8" data-name="减去 8" class="cls-1" transform="translate(32 9)">
        <path class="cls-4" d="M 2.499700307846069 7.500850677490234 L 1.200005292892456 7.500200271606445 L 2.499700307846069 7.500200271606445 L 2.499700307846069 7.500850677490234 Z M 13.49960041046143 7.028615474700928 L 13.49960041046143 7.000200271606445 L 13.49960041046143 0.9999002814292908 L 13.49960041046143 0.9714851379394531 C 13.50013160705566 0.9808942675590515 13.50040054321289 0.9903608560562134 13.50040054321289 0.9999002814292908 L 13.50040054321289 7.000200271606445 C 13.50040054321289 7.009739875793457 13.50013160705566 7.019206047058105 13.49960041046143 7.028615474700928 Z"/>
        <path class="cls-5" d="M 2.999700307846069 8.001100540161133 L 2.998700380325317 8.001100540161133 L 0.9999002814292908 8.000100135803223 C 0.448550283908844 8.000100135803223 2.716064386731887e-07 7.551550388336182 2.716064386731887e-07 7.000200271606445 L 2.716064386731887e-07 0.9999002814292908 C 2.716064386731887e-07 0.448550283908844 0.448550283908844 2.700805623589986e-07 0.9999002814292908 2.700805623589986e-07 L 12.99960041046143 2.700805623589986e-07 C 13.55144023895264 2.700805623589986e-07 14.00040054321289 0.448550283908844 14.00040054321289 0.9999002814292908 L 14.00040054321289 7.000200271606445 C 14.00040054321289 7.551550388336182 13.55144023895264 8.000100135803223 12.99960041046143 8.000100135803223 L 10.99980068206787 8.000100135803223 L 10.99980068206787 7.000200271606445 L 12.99960041046143 7.000200271606445 L 12.99960041046143 0.9999002814292908 L 0.9999002814292908 0.9999002814292908 L 0.9999002814292908 7.000200271606445 L 2.999700307846069 7.000200271606445 L 2.999700307846069 8.000100135803223 L 2.999700307846069 8.001100540161133 Z"/>
      </g>
      <g id="减去_4" data-name="减去 4" class="cls-1" transform="translate(34 14)">
        <path class="cls-4" d="M9,6H1A1,1,0,0,1,0,5V1A1,1,0,0,1,1,0H9a1,1,0,0,1,1,1V5A1,1,0,0,1,9,6ZM1,1V5H9V1Z"/>
        <path class="cls-5" d="M 9 6.00029993057251 L 0.9998999238014221 6.00029993057251 C 0.4485499262809753 6.00029993057251 -6.790160966829717e-08 5.551750183105469 -6.790160966829717e-08 5.000400066375732 L -6.790160966829717e-08 0.9998999834060669 C -6.790160966829717e-08 0.4485499560832977 0.4485499262809753 -3.471374654395731e-08 0.9998999238014221 -3.471374654395731e-08 L 9 -3.471374654395731e-08 C 9.551349639892578 -3.471374654395731e-08 9.999899864196777 0.4485499560832977 9.999899864196777 0.9998999834060669 L 9.999899864196777 5.000400066375732 C 9.999899864196777 5.551750183105469 9.551349639892578 6.00029993057251 9 6.00029993057251 Z M 0.9998999238014221 0.9998999834060669 L 0.9998999238014221 5.000400066375732 L 9 5.000400066375732 L 9 0.9998999834060669 L 0.9998999238014221 0.9998999834060669 Z"/>
      </g>
      <rect id="矩形_8" data-name="矩形 8" class="cls-2" width="4" height="1" rx="0.5" transform="translate(36 16)"/>
      <rect id="矩形_10" data-name="矩形 10" class="cls-2" width="1" height="1" rx="0.5" transform="translate(34 11)"/>
    </g>
    <rect id="矩形_110" data-name="矩形 110" class="cls-3" width="16" height="16" transform="translate(31 6)"/>
  </g>
</svg>
