<svg xmlns="http://www.w3.org/2000/svg" width="14.156" height="15.71" viewBox="0 0 14.156 15.71">
  <path id="血糖" class="cls-1" d="M145.642,73.211a4.51,4.51,0,0,1-4.607,3.923,4.336,4.336,0,0,1-4.541-4.459c-.1-2.581,2.619-6.1,4.491-7.986a23.9,23.9,0,0,1,1.864,2.17c.161-.283.542-.95.726-1.194a34.4,34.4,0,0,0-2.54-2.835c-2.213,2.239-5.894,6.583-5.894,9.83a5.894,5.894,0,0,0,11.767.483A5.789,5.789,0,0,1,145.642,73.211Zm.481-9.692c-1.191,1.189-3.174,4.077-3.174,5.8a3.174,3.174,0,0,0,6.348,0C149.3,67.6,147.362,64.739,146.123,63.519Zm-5.43,11.136h.555a.555.555,0,0,0,.555-.555v-.833h.888a.555.555,0,0,0,.555-.555v-.555a.555.555,0,0,0-.555-.555H141.8v-.833a.555.555,0,0,0-.555-.555h-.555a.555.555,0,0,0-.555.555V71.6h-.777a.555.555,0,0,0-.555.555v.555a.555.555,0,0,0,.555.555h.777V74.1A.555.555,0,0,0,140.692,74.655Z" transform="translate(-135.141 -62.831)"/>
</svg>
