<svg xmlns="http://www.w3.org/2000/svg" xmlns:xlink="http://www.w3.org/1999/xlink" width="16" height="16" viewBox="0 0 16 16">
  <defs>
    <style>
      .cls-1 {
      }

      .cls-2 {
        opacity: 0;
      }

      .cls-3 {
      }
    </style>
    <clipPath id="clip-path">
      <rect id="SVGID" class="cls-1" width="12" height="14"/>
    </clipPath>
  </defs>
  <g id="组_126" data-name="组 126" transform="translate(-32 -204)">
    <rect id="矩形_1" data-name="矩形 1" class="cls-2" width="16" height="16" transform="translate(32 204)"/>
    <g id="组_106" data-name="组 106" transform="translate(34 205)">
      <g id="组_105" data-name="组 105" class="cls-3" transform="translate(0 0)">
        <path id="路径_20" data-name="路径 20" class="cls-1" d="M602.752,130.918a3.933,3.933,0,1,1-3.861,3.932,3.9,3.9,0,0,1,3.861-3.932Zm0,0a3.933,3.933,0,1,1-3.861,3.932,3.9,3.9,0,0,1,3.861-3.932Zm-1.13,7.139h2.513a4.783,4.783,0,0,1,4.741,4.825v.254c0,.989-.726,1.447-1.854,1.632a18.124,18.124,0,0,1-2.887.134h-2.513a18.082,18.082,0,0,1-2.883-.122c-1.129-.179-1.859-.644-1.859-1.644v-.254a4.783,4.783,0,0,1,4.742-4.825Zm0,0" transform="translate(-596.882 -130.919)"/>
      </g>
    </g>
  </g>
</svg>
