<svg xmlns="http://www.w3.org/2000/svg" width="32" height="32" viewBox="0 0 32 32">
  <defs>
    <style>
      .cls-1, .cls-3 {
        fill: none;
      }

      .cls-2, .cls-5 {
        fill: #9b9cb0;
      }

      .cls-4, .cls-5 {
        stroke: none;
      }
    </style>
  </defs>
  <g id="icon_ltjl" transform="translate(-1105.5 -595.5)">
    <rect id="矩形_798" data-name="矩形 798" class="cls-1" width="32" height="32" transform="translate(1105.5 595.5)"/>
    <rect id="矩形_1312" data-name="矩形 1312" class="cls-2" width="2" height="8" rx="1" transform="translate(1120.5 604.5)"/>
    <rect id="矩形_1313" data-name="矩形 1313" class="cls-2" width="2" height="8" rx="1" transform="translate(1128.5 610.5) rotate(90)"/>
    <g id="联合_25" data-name="联合 25" class="cls-3" transform="translate(2787 5566)">
      <path class="cls-4" d="M-1667.215-4941.358l-1.885-3.141h-6.4a4,4,0,0,1-4-4v-14a4,4,0,0,1,4-4h20a4,4,0,0,1,4,4v14a4,4,0,0,1-4,4h-6.4l-1.884,3.141a1.984,1.984,0,0,1-1.715.971A1.981,1.981,0,0,1-1667.215-4941.358Z"/>
      <path class="cls-5" d="M -1665.499755859375 -4942.38720703125 L -1663.6162109375 -4945.5283203125 L -1663.03369140625 -4946.49951171875 L -1661.901000976563 -4946.49951171875 L -1655.499633789063 -4946.49951171875 C -1654.39697265625 -4946.49951171875 -1653.499877929688 -4947.39697265625 -1653.499877929688 -4948.50048828125 L -1653.499877929688 -4962.50048828125 C -1653.499877929688 -4963.60302734375 -1654.39697265625 -4964.5 -1655.499633789063 -4964.5 L -1675.499755859375 -4964.5 C -1676.602416992188 -4964.5 -1677.49951171875 -4963.60302734375 -1677.49951171875 -4962.50048828125 L -1677.49951171875 -4948.50048828125 C -1677.49951171875 -4947.39697265625 -1676.602416992188 -4946.49951171875 -1675.499755859375 -4946.49951171875 L -1669.099365234375 -4946.49951171875 L -1667.966918945313 -4946.49951171875 L -1667.384399414063 -4945.5283203125 L -1665.499755859375 -4942.38720703125 M -1665.500122070313 -4940.38720703125 C -1666.163452148438 -4940.38720703125 -1666.826538085938 -4940.7109375 -1667.214721679688 -4941.3583984375 L -1669.099365234375 -4944.49951171875 L -1675.499755859375 -4944.49951171875 C -1677.709716796875 -4944.49951171875 -1679.49951171875 -4946.29052734375 -1679.49951171875 -4948.50048828125 L -1679.49951171875 -4962.50048828125 C -1679.49951171875 -4964.708984375 -1677.709716796875 -4966.5 -1675.499755859375 -4966.5 L -1655.499633789063 -4966.5 C -1653.290893554688 -4966.5 -1651.499877929688 -4964.708984375 -1651.499877929688 -4962.50048828125 L -1651.499877929688 -4948.50048828125 C -1651.499877929688 -4946.29052734375 -1653.290893554688 -4944.49951171875 -1655.499633789063 -4944.49951171875 L -1661.901000976563 -4944.49951171875 L -1663.78466796875 -4941.3583984375 C -1664.173461914063 -4940.7109375 -1664.8369140625 -4940.38720703125 -1665.500122070313 -4940.38720703125 Z"/>
    </g>
  </g>
</svg>
