<svg
 xmlns="http://www.w3.org/2000/svg"
 xmlns:xlink="http://www.w3.org/1999/xlink"
 width="16px" height="16px">
<path fill-rule="evenodd"
 d="M15.000,14.000 L14.000,14.000 L14.000,11.000 C14.000,10.396 13.814,10.000 13.000,10.000 L3.000,10.000 C2.216,10.000 2.000,10.396 2.000,11.000 L2.000,14.000 L1.000,14.000 C0.755,14.000 -0.000,13.814 -0.000,13.000 L-0.000,6.000 C-0.000,6.199 0.014,5.000 1.000,5.000 L3.000,5.000 L3.000,1.000 C3.000,0.492 3.389,-0.000 4.000,-0.000 L12.000,-0.000 C12.754,-0.000 13.000,0.485 13.000,1.000 L13.000,5.000 L15.000,5.000 C15.000,5.000 16.000,5.054 16.000,6.000 L16.000,13.000 C16.000,13.724 15.395,14.000 15.000,14.000 ZM11.000,2.000 L5.000,2.000 L5.000,5.000 L11.000,5.000 L11.000,2.000 ZM13.000,7.000 L11.000,7.000 L11.000,8.000 L13.000,8.000 L13.000,7.000 ZM13.000,16.000 L3.000,16.000 L3.000,11.000 L13.000,11.000 L13.000,16.000 Z"/>
</svg>
