<svg xmlns="http://www.w3.org/2000/svg" width="16" height="16" viewBox="0 0 16 16">
  <defs>
    <style>
      .cls-1 {
        opacity: 0;
      }

      .cls-2 {
      }
    </style>
  </defs>
  <g id="组_128" data-name="组 128" transform="translate(-32 -316)">
    <rect id="矩形_1" data-name="矩形 1" class="cls-1" width="16" height="16" transform="translate(32 316)"/>
    <path id="联合_6" data-name="联合 6" class="cls-2" d="M-13-4843a1,1,0,0,1-1-1v-10a1,1,0,0,1,1-1H-1a1,1,0,0,1,1,1v10a1,1,0,0,1-1,1Zm1-7v4a1,1,0,0,0,1,1h8a1,1,0,0,0,1-1v-4a1,1,0,0,0-1-1H-4v-1a1,1,0,0,0-1-1H-9a1,1,0,0,0-1,1v1h-1A1,1,0,0,0-12-4850Zm7,2a1,1,0,0,1,1-1,1,1,0,0,1,1,1,1,1,0,0,1-1,1A1,1,0,0,1-5-4848Zm-3,0a1,1,0,0,1,1-1,1,1,0,0,1,1,1,1,1,0,0,1-1,1A1,1,0,0,1-8-4848Zm-3,0a1,1,0,0,1,1-1,1,1,0,0,1,1,1,1,1,0,0,1-1,1A1,1,0,0,1-11-4848Z" transform="translate(47 5173)"/>
  </g>
</svg>
