<svg xmlns="http://www.w3.org/2000/svg" width="24" height="24" viewBox="0 0 24 24">
  <defs>
    <style>
      .cls-1 {
        fill: none;
      }

      .cls-2 {
        
      }
    </style>
  </defs>
  <g id="icon_yh" transform="translate(0 0.12)">
    <rect id="矩形_15" data-name="矩形 15" class="cls-1" width="24" height="24" transform="translate(0 -0.12)"/>
    <g id="组_9" data-name="组 9" transform="translate(4.074 2.433)">
      <path id="路径_31" data-name="路径 31" class="cls-2" d="M71.06,28.387a3.947,3.947,0,0,1-3.94-3.943V21.715a3.942,3.942,0,1,1,7.884,0v2.716a3.947,3.947,0,0,1-3.937,3.956Zm0-9.322A2.665,2.665,0,0,0,68.4,21.715v2.716a2.664,2.664,0,1,0,5.327,0V21.715A2.665,2.665,0,0,0,71.06,19.066Z" transform="translate(-63.113 -17.773)"/>
      <path id="路径_32" data-name="路径 32" class="cls-2" d="M72.8,36.719a6.474,6.474,0,0,1-2.237-.4l.438-1.2A5.162,5.162,0,0,0,76.52,33.84l.924.908A6.446,6.446,0,0,1,72.8,36.719Z" transform="translate(-66.14 -31.915)"/>
      <path id="路径_33" data-name="路径 33" class="cls-2" d="M41.92,112.211a6.485,6.485,0,0,1,6.451,6.123H34.888a6.486,6.486,0,0,1,6.443-6.123h.589m0-1.2H41.33a7.67,7.67,0,0,0-7.65,7.654.869.869,0,0,0,.866.866H48.709a.869.869,0,0,0,.869-.866,7.67,7.67,0,0,0-7.657-7.654Z" transform="translate(-33.68 -99.839)"/>
    </g>
  </g>
</svg>
