<svg xmlns="http://www.w3.org/2000/svg" width="7.943" height="16" viewBox="0 0 7.943 16">
  <path id="ic_female" class="cls-1" d="M2910.056,245a.781.781,0,0,1-.74-.576c-.2-.685-.427-1.391-.578-1.87-.466,0-1.057-.016-1.057-.016a.78.78,0,0,1-.614-.332.885.885,0,0,1-.14-.719l1.214-5.086a2.833,2.833,0,0,1,2.733-2.325h.013a2.381,2.381,0,1,1,.141,0,2.862,2.862,0,0,1,2.59,2.367l1.2,5.039a.87.87,0,0,1-.141.715.772.772,0,0,1-.613.328l-1.057.006c-.151.481-.376,1.205-.58,1.892a.776.776,0,0,1-.734.572Z" transform="translate(-2906.904 -229)"/>
</svg>
