<svg xmlns="http://www.w3.org/2000/svg" width="16" height="16" viewBox="0 0 16 16">
  <defs>
    <style>
      .cls-1 {
        opacity: 0;
      }

      .cls-2 {
      }
    </style>
  </defs>
  <g id="ic_in_hospital" transform="translate(-406 -61)">
    <rect id="矩形_1277_拷贝" data-name="矩形 1277 拷贝" class="cls-1" width="16" height="16" transform="translate(406 61)"/>
    <path id="ic_in_hospital-2" data-name="ic_in_hospital" class="cls-2" d="M416.785,76V68.718h3.325a.9.9,0,0,1,.89.94V76ZM407,76s0,0,0,0V62h8.288a.922.922,0,0,1,.889.893V76Zm4.96-1.738H414.3v-2.4h-2.341Zm-3.184,0h2.342v-2.4h-2.342Zm3.184-3.289H414.3v-2.4h-2.341Zm-3.184,0h2.342v-2.4h-2.342Zm1.031-5.685a.42.42,0,0,0,.421.423h.89V66.6a.42.42,0,0,0,.42.423c.235,0,.469-.188.422-.423v-.893h.889a.393.393,0,0,0,.421-.423.433.433,0,0,0-.421-.47h-.889v-.892a.421.421,0,1,0-.842,0v.892h-.89A.463.463,0,0,0,409.809,65.288Z"/>
  </g>
</svg>
