<svg id="ic_industry_default" xmlns="http://www.w3.org/2000/svg" width="20.001" height="20" viewBox="0 0 20.001 20">
  <defs>
    <style>
      .cls-1, .cls-2 {
        
      }

      .cls-1 {
        opacity: 0;
      }
    </style>
  </defs>
  <rect id="矩形_769" data-name="矩形 769" class="cls-1" width="20" height="20" transform="translate(0.001)"/>
  <path id="ic_industry_default-2" data-name="ic_industry_default" class="cls-2" d="M17.25,20H1a1,1,0,1,1,0-2h.75V2.141A2.143,2.143,0,0,1,3.892,0h8.717A2.143,2.143,0,0,1,14.75,2.141V7h1.476A2.027,2.027,0,0,1,18.25,9.024V18H19a1,1,0,1,1,0,2Zm-2.5-2h1.5V9.024l-1.5-.015ZM3.75,2.141V18h9V2.141A.142.142,0,0,0,12.609,2H3.892A.142.142,0,0,0,3.75,2.141ZM6.75,15a1,1,0,1,1,0-2h3a1,1,0,1,1,0,2Zm0-3a1,1,0,1,1,0-2h3a1,1,0,1,1,0,2Zm.5-4.5V7h-.5a1,1,0,1,1,0-2h.5V4.5a1,1,0,1,1,2,0V5h.5a1,1,0,1,1,0,2h-.5v.5a1,1,0,1,1-2,0Z" transform="translate(0 0)"/>
</svg>
