<svg xmlns="http://www.w3.org/2000/svg" width="16" height="16" viewBox="0 0 16 16">
  <defs>
    <style>
      .cls-1 {
      }

      .cls-2 {
        opacity: 0;
      }
    </style>
  </defs>
  <g id="组_132" data-name="组 132" transform="translate(-6 -3)">
    <g id="组_115" data-name="组 115" transform="translate(141 -5196)">
      <path id="减去_13" data-name="减去 13" class="cls-1" d="M-35-9H-46a1,1,0,0,1-1-1V-21a1,1,0,0,1,1-1h11a1,1,0,0,1,1,1v11A1,1,0,0,1-35-9Zm-2.5-6a.5.5,0,0,0-.5.5v3a.5.5,0,0,0,.5.5.5.5,0,0,0,.5-.5v-3A.5.5,0,0,0-37.5-15Zm-2,1a.5.5,0,0,0-.5.5v2a.5.5,0,0,0,.5.5.5.5,0,0,0,.5-.5v-2A.5.5,0,0,0-39.5-14Zm-2-2a.5.5,0,0,0-.5.5v4a.5.5,0,0,0,.5.5.5.5,0,0,0,.5-.5v-4A.5.5,0,0,0-41.5-16Zm-2,1a.5.5,0,0,0-.5.5v3a.5.5,0,0,0,.5.5.5.5,0,0,0,.5-.5v-3A.5.5,0,0,0-43.5-15Zm2.4-4.066h0l1.361,2.1a.5.5,0,0,0,.42.227.492.492,0,0,0,.271-.08l.016-.01.009-.007,2.49-1.617a.5.5,0,0,0,.218-.318.5.5,0,0,0-.07-.373.5.5,0,0,0-.42-.228.5.5,0,0,0-.272.08l-2.1,1.361-1.363-2.1a.5.5,0,0,0-.419-.228.5.5,0,0,0-.272.08l-2.515,1.633a.5.5,0,0,0-.218.317.494.494,0,0,0,.071.374.5.5,0,0,0,.419.229.5.5,0,0,0,.272-.082l2.1-1.361Z" transform="translate(-86 5223)"/>
    </g>
    <rect id="矩形_1" data-name="矩形 1" class="cls-2" width="16" height="16" transform="translate(6 3)"/>
  </g>
</svg>
