<svg 
 xmlns="http://www.w3.org/2000/svg"
 xmlns:xlink="http://www.w3.org/1999/xlink"
 width="14px" height="14px">
<path fill-rule="evenodd"  fill="rgb(255, 172, 80)"
 d="M12.000,14.000 L2.000,14.000 C0.895,14.000 -0.000,13.105 -0.000,12.000 L-0.000,5.526 L3.586,9.155 L4.984,7.741 L6.382,6.326 L9.512,9.493 L8.007,11.003 L11.992,11.003 L11.992,7.003 L10.915,8.084 L6.382,3.498 L3.586,6.327 L-0.000,2.698 L-0.000,2.000 C-0.000,0.895 0.895,-0.000 2.000,-0.000 L12.000,-0.000 C13.105,-0.000 14.000,0.895 14.000,2.000 L14.000,12.000 C14.000,13.105 13.105,14.000 12.000,14.000 Z"/>
</svg>
